<?xml version="1.0" standalone="no"?>
<!DOCTYPE svg PUBLIC "-//W3C//DTD SVG 20010904//EN"
 "http://www.w3.org/TR/2001/REC-SVG-20010904/DTD/svg10.dtd">
<svg version="1.0" xmlns="http://www.w3.org/2000/svg"
 width="1024.000000pt" height="1024.000000pt" viewBox="0 0 1024.000000 1024.000000"
 preserveAspectRatio="xMidYMid meet">
<metadata>
Created by potrace 1.11, written by Peter Selinger 2001-2013
</metadata>
<g transform="translate(0.000000,1024.000000) scale(0.100000,-0.100000)"
fill="#000000" stroke="none">
<path d="M229 10092 c-43 -22 -59 -38 -81 -81 l-28 -53 2 -4852 3 -4851 25
-35 c33 -48 70 -79 100 -86 14 -3 32 -8 40 -11 21 -7 9640 -6 9647 1 4 3 12 1
20 -5 7 -6 13 -7 13 -2 0 5 15 14 33 21 40 14 80 57 103 109 15 35 16 410 16
4853 0 2648 -2 4832 -6 4853 -8 49 -44 102 -93 135 l-38 27 -4851 3 -4852 2
-53 -28z"/>
</g>
</svg>
